<?xml version="1.0" encoding="UTF-8" standalone="no"?>
<!DOCTYPE svg PUBLIC "-//W3C//DTD SVG 1.1//EN" "http://www.w3.org/Graphics/SVG/1.1/DTD/svg11.dtd">
<svg width="100%" height="100%" viewBox="0 0 81 46" version="1.1" xmlns="http://www.w3.org/2000/svg" xmlns:xlink="http://www.w3.org/1999/xlink" xml:space="preserve" xmlns:serif="http://www.serif.com/" style="fill-rule:evenodd;clip-rule:evenodd;stroke-linejoin:round;stroke-miterlimit:2;">
    <g transform="matrix(1,0,0,1,-1160.93,-760.931)">
        <g transform="matrix(1,0,0,1,816,5.98347)">
            <g transform="matrix(1,0,0,1,-816,-61.9835)">
                <path d="M1201.02,829.023C1198.35,831.579 1194.43,835.277 1190.14,839.14C1179.85,848.413 1167.62,858.618 1167.62,858.618L1164.38,855.382C1164.38,855.382 1174.59,843.153 1183.86,832.86C1190.91,825.036 1197.42,818.416 1197.42,818.416C1199.39,816.437 1202.61,816.437 1204.58,818.416C1204.58,818.416 1211.04,825.084 1218.08,832.916C1227.35,843.21 1237.62,855.382 1237.62,855.382L1234.38,858.618C1234.38,858.618 1222.21,848.348 1211.92,839.084C1207.64,835.235 1203.71,831.563 1201.02,829.023Z" style="fill:url(#_Linear1);"/>
            </g>
        </g>
    </g>
    <defs>
        <linearGradient id="_Linear1" x1="0" y1="0" x2="1" y2="0" gradientUnits="userSpaceOnUse" gradientTransform="matrix(70,0,0,35,1166,839.5)"><stop offset="0" style="stop-color:rgb(156,79,119);stop-opacity:1"/><stop offset="1" style="stop-color:rgb(237,136,90);stop-opacity:1"/></linearGradient>
    </defs>
</svg>
