<?xml version="1.0" encoding="UTF-8" standalone="no"?>
<!DOCTYPE svg PUBLIC "-//W3C//DTD SVG 1.1//EN" "http://www.w3.org/Graphics/SVG/1.1/DTD/svg11.dtd">
<svg width="100%" height="100%" viewBox="0 0 166 166" version="1.1" xmlns="http://www.w3.org/2000/svg" xmlns:xlink="http://www.w3.org/1999/xlink" xml:space="preserve" xmlns:serif="http://www.serif.com/" style="fill-rule:evenodd;clip-rule:evenodd;stroke-linejoin:round;stroke-miterlimit:2;">
    <g transform="matrix(1,0,0,1,-420.112,-1260.22)">
        <g transform="matrix(1,0,0,1,5.68434e-14,600.125)">
            <g transform="matrix(1,0,0,1,6,-294.063)">
                <g transform="matrix(1,0,0,1,44.1218,-20.3307)">
                    <circle cx="455.878" cy="1060.37" r="79.888" style="fill:rgb(44,78,107);"/>
                </g>
                <g transform="matrix(1,0,0,1,44.1218,-20.3307)">
                    <rect x="455.878" y="1060.37" width="79.888" height="79.888" style="fill:rgb(44,78,107);"/>
                </g>
            </g>
        </g>
        <g transform="matrix(1,0,0,1,5.68434e-14,600.125)">
            <g transform="matrix(1,0,0,1,0,-300.063)">
                <g transform="matrix(1,0,0,1,44.1218,-20.3307)">
                    <circle cx="455.878" cy="1060.37" r="79.888" style="fill:rgb(92,155,213);"/>
                </g>
                <g transform="matrix(1,0,0,1,44.1218,-20.3307)">
                    <rect x="455.878" y="1060.37" width="79.888" height="79.888" style="fill:rgb(92,155,213);"/>
                </g>
            </g>
        </g>
    </g>
</svg>
