<?xml version="1.0" encoding="UTF-8" standalone="no"?>
<!DOCTYPE svg PUBLIC "-//W3C//DTD SVG 1.1//EN" "http://www.w3.org/Graphics/SVG/1.1/DTD/svg11.dtd">
<svg width="100%" height="100%" viewBox="0 0 193 193" version="1.1" xmlns="http://www.w3.org/2000/svg" xmlns:xlink="http://www.w3.org/1999/xlink" xml:space="preserve" xmlns:serif="http://www.serif.com/" style="fill-rule:evenodd;clip-rule:evenodd;stroke-linejoin:round;stroke-miterlimit:2;">
    <g transform="matrix(1,0,0,1,-403.78,-643.758)">
        <g transform="matrix(1.22191,0,0,1.22191,127.901,-219.013)">
            <g transform="matrix(1,0,0,1,-18.8745,0)">
                <path d="M323.398,706.086L244.652,706.086L244.652,784.831L323.398,706.086Z" style="fill:rgb(0,176,240);"/>
                <g transform="matrix(1,0,0,1,0,78.7456)">
                    <path d="M323.398,706.086L244.652,706.086L244.652,784.831L323.398,706.086Z" style="fill:rgb(0,176,240);"/>
                </g>
            </g>
            <g transform="matrix(-1,0,0,1,627.921,0)">
                <path d="M323.398,706.086L244.652,706.086L244.652,784.831L323.398,706.086Z" style="fill:rgb(0,176,240);"/>
                <g transform="matrix(1,0,0,1,0,78.7456)">
                    <path d="M323.398,706.086L244.652,706.086L244.652,784.831L323.398,706.086Z" style="fill:rgb(0,176,240);"/>
                </g>
            </g>
        </g>
    </g>
</svg>
