<?xml version="1.0" encoding="UTF-8" standalone="no"?>
<!DOCTYPE svg PUBLIC "-//W3C//DTD SVG 1.1//EN" "http://www.w3.org/Graphics/SVG/1.1/DTD/svg11.dtd">
<svg width="100%" height="100%" viewBox="0 0 488 223" version="1.1" xmlns="http://www.w3.org/2000/svg" xmlns:xlink="http://www.w3.org/1999/xlink" xml:space="preserve" xmlns:serif="http://www.serif.com/" style="fill-rule:evenodd;clip-rule:evenodd;stroke-linejoin:round;stroke-miterlimit:2;">
    <g transform="matrix(1,0,0,1,-256.19,-2130.18)">
        <g transform="matrix(1,0,0,1,5.68434e-14,1501.31)">
            <g transform="matrix(3.27186,0,0,3.27186,-290.489,81.0133)">
                <g transform="matrix(1,0,0,1,9.54773,-5.54323)">
                    <path d="M296.625,182.933C290.256,176.564 281.618,172.986 272.611,172.986C253.867,172.986 238.65,188.203 238.65,206.947C238.65,214.818 241.382,222.408 246.321,228.447C246.874,229.117 247.683,229.523 248.55,229.565C249.418,229.607 250.263,229.281 250.877,228.667C256.884,222.675 272.611,206.947 272.611,206.947L296.625,182.933Z" style="fill:rgb(44,62,80);"/>
                </g>
                <g transform="matrix(1,0,0,1,9.54773,-5.54323)">
                    <path d="M294.338,228.674C294.954,229.29 295.802,229.618 296.672,229.576C297.543,229.534 298.355,229.127 298.909,228.454C303.84,222.408 306.572,214.818 306.572,206.947C306.572,188.203 291.355,172.986 272.611,172.986C263.604,172.986 254.966,176.564 248.597,182.933L272.611,206.947C272.611,206.947 288.338,222.675 294.338,228.674Z" style="fill:rgb(52,73,94);"/>
                </g>
                <g transform="matrix(1,0,0,1,9.54773,-5.54323)">
                    <path d="M248.597,182.933C247.898,183.632 247.23,184.36 246.595,185.117L272.611,206.947L248.597,182.933Z" style="fill:rgb(29,41,54);"/>
                </g>
            </g>
        </g>
        <g transform="matrix(1,0,0,1,5.68434e-14,1501.31)">
            <g id="_0" serif:id="0" transform="matrix(0.148156,0,0,0.148156,159.888,516.287)">
                <g transform="matrix(0.911565,0,0,0.911565,305.141,-124.573)">
                    <circle cx="1201.08" cy="1792.97" r="822.76" style="fill:white;"/>
                </g>
                <path d="M841.858,1009.07L1385.64,1524.19L869.67,2040.16C729.018,1899.51 650,1708.75 650,1509.84C650,1317.45 722.593,1141.89 841.858,1009.07Z" style="fill:rgb(65,170,212);"/>
                <path d="M869.774,979.609C1005.53,843.851 1193.03,759.835 1400,759.835C1813.94,759.835 2150,1095.9 2150,1509.84C2150,1708.75 2070.98,1899.51 1930.33,2040.16L1842.88,1952.72L1400,1509.84L869.774,979.609Z" style="fill:rgb(67,170,212);"/>
            </g>
        </g>
    </g>
</svg>
