<?xml version="1.0" encoding="UTF-8" standalone="no"?>
<!DOCTYPE svg PUBLIC "-//W3C//DTD SVG 1.1//EN" "http://www.w3.org/Graphics/SVG/1.1/DTD/svg11.dtd">
<svg width="100%" height="100%" viewBox="0 0 271 230" version="1.1" xmlns="http://www.w3.org/2000/svg" xmlns:xlink="http://www.w3.org/1999/xlink" xml:space="preserve" xmlns:serif="http://www.serif.com/" style="fill-rule:evenodd;clip-rule:evenodd;stroke-linejoin:round;stroke-miterlimit:2;">
    <g transform="matrix(1,0,0,1,-364.697,-2425.78)">
        <g transform="matrix(4.22133,0,0,4.22133,-603.617,1678.14)">
            <path d="M244.327,193.306L277.597,226.62C278.07,227.095 278.636,227.454 279.25,227.682C279.865,227.911 280.529,228.007 281.198,227.956C281.868,227.905 282.51,227.708 283.083,227.389C283.657,227.069 284.162,226.626 284.559,226.083C286.355,223.641 287.747,220.935 288.697,218.074C289.643,215.225 290.148,212.221 290.165,209.164C290.281,201.192 287.09,193.969 281.971,188.63C276.769,183.205 269.538,179.744 261.438,179.521C253.192,179.344 245.595,182.5 240.15,187.876C234.682,193.275 231.444,200.88 231.516,209.164C231.576,212.343 232.13,215.461 233.154,218.409C234.179,221.359 235.653,224.144 237.554,226.646C238.039,227.286 238.645,227.821 239.343,228.193C240.037,228.562 240.805,228.798 241.609,228.843C242.407,228.888 243.197,228.774 243.923,228.487C244.645,228.203 245.315,227.778 245.864,227.204C245.861,227.206 259.23,213.289 259.23,213.289L257.312,211.372L243.382,224.717C243.18,224.91 242.936,225.038 242.682,225.125C242.433,225.211 242.163,225.226 241.894,225.199C241.631,225.173 241.386,225.072 241.162,224.941C240.943,224.813 240.761,224.627 240.612,224.414C239.04,222.182 237.848,219.723 237.054,217.134C236.27,214.577 235.898,211.888 235.95,209.164C236.011,202.156 238.985,195.904 243.553,191.278C248.147,186.625 254.39,183.548 261.438,183.396C268.634,183.198 275.258,185.902 280.078,190.524C284.98,195.224 288.015,201.843 288.121,209.164C288.138,212.009 287.703,214.811 286.85,217.472C285.991,220.153 284.71,222.69 283.053,224.988C282.818,225.312 282.518,225.578 282.177,225.77C281.836,225.962 281.454,226.081 281.054,226.114C280.654,226.146 280.256,226.09 279.888,225.955C279.519,225.82 279.179,225.607 278.894,225.323C278.894,225.323 245.581,192.053 245.581,192.053L244.327,193.306Z" style="fill:url(#_Linear1);"/>
        </g>
    </g>
    <defs>
        <linearGradient id="_Linear1" x1="0" y1="0" x2="1" y2="0" gradientUnits="userSpaceOnUse" gradientTransform="matrix(55.4104,0,0,47.2957,233.733,205.106)"><stop offset="0" style="stop-color:rgb(156,79,119);stop-opacity:1"/><stop offset="1" style="stop-color:rgb(237,136,90);stop-opacity:1"/></linearGradient>
    </defs>
</svg>
